<?xml version="1.0" encoding="UTF-8" standalone="no"?> <svg id="Reference" xmlns="http://www.w3.org/2000/svg" viewBox="0 0 48 48"><defs><style>.cls-1{fill:#c5d4dd;}.cls-2{fill:#e9eef2;}.cls-3{fill:#f9f9f9;}.cls-4{fill:#09105a;}</style></defs><path class="cls-1" d="M43,15.34V32.66a3.982,3.982,0,0,1-2,3.46L26,44.78a3.979,3.979,0,0,1-2,.54V23.97L42.45,13.32A3.927,3.927,0,0,1,43,15.34Z"/><path class="cls-2" d="M24,23.97V45.32a3.979,3.979,0,0,1-2-.54L7,36.12a3.982,3.982,0,0,1-2-3.46V15.34a3.927,3.927,0,0,1,.55-2.02Z"/><path class="cls-3" d="M42.45,13.32,24,23.97,5.55,13.32A3.928,3.928,0,0,1,7,11.88L22,3.22a3.974,3.974,0,0,1,4,0l15,8.66A3.928,3.928,0,0,1,42.45,13.32Z"/><path class="cls-4" d="M26.117,11.77a1.3,1.3,0,0,1,.008,2.459,4.671,4.671,0,0,1-4.239,0,1.3,1.3,0,0,1-.02-2.459A4.7,4.7,0,0,1,26.117,11.77Z"/><path class="cls-4" d="M18.776,34.994a3.886,3.886,0,0,1,1.763,3.054c0,1.13-.8,1.582-1.774,1.018A3.883,3.883,0,0,1,17,36C17,34.879,17.793,34.427,18.776,34.994Z"/><path class="cls-4" d="M14.509,27.465a3.886,3.886,0,0,1,1.763,3.054c0,1.13-.8,1.582-1.775,1.018a3.889,3.889,0,0,1-1.769-3.064C12.731,27.35,13.526,26.9,14.509,27.465Z"/><path class="cls-4" d="M10.242,19.936A3.884,3.884,0,0,1,12,22.99c0,1.129-.8,1.582-1.774,1.018a3.889,3.889,0,0,1-1.769-3.064C8.464,19.821,9.258,19.369,10.242,19.936Z"/><path class="cls-4" d="M29.933,25.435c.984-.567,1.778-.115,1.781,1.015a3.887,3.887,0,0,1-1.769,3.057c-.977.564-1.778.115-1.781-1.007A3.9,3.9,0,0,1,29.933,25.435Z"/><path class="cls-4" d="M37.027,21.34c.983-.568,1.777-.115,1.781,1.015a3.887,3.887,0,0,1-1.77,3.057c-.976.564-1.771.111-1.774-1.011A3.887,3.887,0,0,1,37.027,21.34Z"/><path class="cls-4" d="M29.957,33.586c.983-.567,1.777-.115,1.78,1.015a3.889,3.889,0,0,1-1.769,3.057c-.977.564-1.777.115-1.781-1.008A3.9,3.9,0,0,1,29.957,33.586Z"/><path class="cls-4" d="M37.05,29.491c.983-.568,1.777-.115,1.781,1.015a3.889,3.889,0,0,1-1.769,3.057c-.977.564-1.772.111-1.775-1.012A3.887,3.887,0,0,1,37.05,29.491Z"/><path class="cls-4" d="M41.5,11.009l-15-8.66a5.015,5.015,0,0,0-5,0L6.5,11.01A5.014,5.014,0,0,0,4,15.34V32.66a5.012,5.012,0,0,0,2.5,4.33l15,8.66a5.012,5.012,0,0,0,5,0l15-8.66A5.012,5.012,0,0,0,44,32.66V15.34A5.017,5.017,0,0,0,41.5,11.009Zm-19-6.927a3.006,3.006,0,0,1,3,0l15,8.659a2.969,2.969,0,0,1,.408.314L24,22.815,7.093,13.056a2.9,2.9,0,0,1,.407-.314ZM7.5,35.258A3.006,3.006,0,0,1,6,32.66V15.34a2.934,2.934,0,0,1,.075-.562L23,24.548V44.124a2.892,2.892,0,0,1-.5-.206ZM42,32.66a3.006,3.006,0,0,1-1.5,2.6l-15,8.66a2.892,2.892,0,0,1-.5.206V24.548l16.925-9.77A2.934,2.934,0,0,1,42,15.34Z"/></svg>